<svg xmlns="http://www.w3.org/2000/svg" width="40" height="56">
<defs><style type="text/css" id="current-color-scheme">
.ColorScheme-Background { color:#292929; }
</style></defs>
<g id="topleft"><path d="M0,8 C0,3.582 3.582,0 8,0 L8,8 Z" style="fill:#292929;fill-opacity:0.85"/></g><g id="topright"><path d="M32,0 C36.418,0 40,3.582 40,8 L32,8 Z" style="fill:#292929;fill-opacity:0.85"/></g><g id="bottomleft"><path d="M0,32 L8,32 L8,40 C3.582,40 0,36.418 0,32 Z" style="fill:#292929;fill-opacity:0.85"/></g><g id="bottomright"><path d="M32,32 L40,32 C40,36.418 36.418,40 32,40 Z" style="fill:#292929;fill-opacity:0.85"/></g><rect id="top" x="8" y="0" width="24" height="8" style="fill:#292929;fill-opacity:0.85"/><rect id="bottom" x="8" y="32" width="24" height="8" style="fill:#292929;fill-opacity:0.85"/><rect id="left" x="0" y="8" width="8" height="24" style="fill:#292929;fill-opacity:0.85"/><rect id="right" x="32" y="8" width="8" height="24" style="fill:#292929;fill-opacity:0.85"/><rect id="center" x="8" y="8" width="24" height="24" style="fill:#292929;fill-opacity:0.85"/>
<rect id="hint-top-margin" x="0" y="44" width="2" height="2" style="fill:none"/><rect id="hint-bottom-margin" x="10" y="44" width="2" height="2" style="fill:none"/><rect id="hint-left-margin" x="20" y="44" width="2" height="2" style="fill:none"/><rect id="hint-right-margin" x="30" y="44" width="2" height="2" style="fill:none"/>
</svg>
