<svg xmlns="http://www.w3.org/2000/svg" width="36" height="52">
<defs><style type="text/css" id="current-color-scheme">
.ColorScheme-Background { color:#292929; }
</style></defs>
<g id="topleft"><path d="M 0,6 H 6 V 0 C 2,0 0,2 0,6 Z" style="fill:#292929"/></g><g id="topright" transform="translate(30,0)"><path d="M 0,0 V 6 H 6 C 6,2 4,0 0,0 Z" style="fill:#292929"/></g><g id="bottomleft" transform="translate(0,30)"><path d="M 6,6 V 0 H 0 c 0,4 2,6 6,6 z" style="fill:#292929"/></g><g id="bottomright" transform="translate(30,30)"><path d="M 0,6 V 0 H 6 C 6,4 4,6 0,6 Z" style="fill:#292929"/></g><rect id="top" x="6" y="0" width="24" height="6" style="fill:#292929"/><rect id="bottom" x="6" y="30" width="24" height="6" style="fill:#292929"/><rect id="left" x="0" y="6" width="6" height="24" style="fill:#292929"/><rect id="right" x="30" y="6" width="6" height="24" style="fill:#292929"/><rect id="center" x="6" y="6" width="24" height="24" style="fill:#292929"/>
<rect id="hint-top-margin" x="0" y="40" width="2" height="2" style="fill:none"/><rect id="hint-bottom-margin" x="10" y="40" width="2" height="2" style="fill:none"/><rect id="hint-left-margin" x="20" y="40" width="2" height="2" style="fill:none"/><rect id="hint-right-margin" x="30" y="40" width="2" height="2" style="fill:none"/>
</svg>
